{
  "accessors": [
    {
      "bufferView": 2,
      "componentType": 5126,
      "count": 5243,
      "max": [
        71.127822875976562,
        -56.218299865722656,
        18.378061294555664
      ],
      "min": [
        -71.127655029296875,
        -223.17240905761719,
        -18.428493499755859
      ],
      "type": "VEC3"
    },
    {
      "bufferView": 2,
      "byteOffset": 62916,
      "componentType": 5126,
      "count": 5243,
      "max": [
        0.99972432851791382,
        0.9996914267539978,
        1
      ],
      "min": [
        -0.9997069239616394,
        -0.99998557567596436,
        -0.9999992847442627
      ],
      "type": "VEC3"
    },
    {
      "bufferView": 3,
      "componentType": 5126,
      "count": 5243,
      "max": [
        0.99999082088470459,
        0.99999922513961792,
        0.99984413385391235,
        1
      ],
      "min": [
        -1,
        -0.99984008073806763,
        -0.99999487400054932,
        -1
      ],
      "type": "VEC4"
    },
    {
      "bufferView": 1,
      "componentType": 5126,
      "count": 5243,
      "max": [
        0.99658000469207764,
        1.000980019569397
      ],
      "min": [
        0.37817001342773438,
        0.00279998779296875
      ],
      "type": "VEC2"
    },
    {
      "bufferView": 0,
      "componentType": 5125,
      "count": 15783,
      "max": [
        5242
      ],
      "min": [
        0
      ],
      "type": "SCALAR"
    },
    {
      "bufferView": 2,
      "byteOffset": 125832,
      "componentType": 5126,
      "count": 36,
      "max": [
        2.5781874656677246,
        4.0360379219055176,
        0.41030222177505493
      ],
      "min": [
        -4.5039525032043457,
        -4.2469797134399414,
        -1.0680960416793823
      ],
      "type": "VEC3"
    },
    {
      "bufferView": 2,
      "byteOffset": 126264,
      "componentType": 5126,
      "count": 36,
      "max": [
        0.58322256803512573,
        0.20347411930561066,
        0.99990135431289673
      ],
      "min": [
        -0.2251945286989212,
        -0.28356528282165527,
        0.80076932907104492
      ],
      "type": "VEC3"
    },
    {
      "bufferView": 3,
      "byteOffset": 83888,
      "componentType": 5126,
      "count": 36,
      "max": [
        0.9999958872795105,
        0.25708389282226562,
        0.22554799914360046,
        1
      ],
      "min": [
        -0.64687901735305786,
        -0.88315224647521973,
        -0.58389043807983398,
        -1
      ],
      "type": "VEC4"
    },
    {
      "bufferView": 1,
      "byteOffset": 41944,
      "componentType": 5126,
      "count": 36,
      "max": [
        0.84618997573852539,
        0.93115001916885376
      ],
      "min": [
        0.05324999988079071,
        0.036220073699951172
      ],
      "type": "VEC2"
    },
    {
      "bufferView": 0,
      "byteOffset": 63132,
      "componentType": 5125,
      "count": 150,
      "max": [
        35
      ],
      "min": [
        0
      ],
      "type": "SCALAR"
    },
    {
      "bufferView": 2,
      "byteOffset": 126696,
      "componentType": 5126,
      "count": 54,
      "max": [
        4.6652684211730957,
        4.1765079498291016,
        0.68061161041259766
      ],
      "min": [
        -2.6635301113128662,
        -4.3947916030883789,
        -1.7717636823654175
      ],
      "type": "VEC3"
    },
    {
      "bufferView": 2,
      "byteOffset": 127344,
      "componentType": 5126,
      "count": 54,
      "max": [
        -0.0025313186924904585,
        0.19741298258304596,
        0.999919593334198
      ],
      "min": [
        -0.82394129037857056,
        -0.27131891250610352,
        0.54750257730484009
      ],
      "type": "VEC3"
    },
    {
      "bufferView": 3,
      "byteOffset": 84464,
      "componentType": 5126,
      "count": 54,
      "max": [
        0.99998015165328979,
        0.42906507849693298,
        0.7829434871673584,
        -1
      ],
      "min": [
        0.56603831052780151,
        -0.52893352508544922,
        0.0041221771389245987,
        -1
      ],
      "type": "VEC4"
    },
    {
      "bufferView": 1,
      "byteOffset": 42232,
      "componentType": 5126,
      "count": 54,
      "max": [
        0.94971001148223877,
        0.93115001916885376
      ],
      "min": [
        0.15661999583244324,
        0.036220073699951172
      ],
      "type": "VEC2"
    },
    {
      "bufferView": 0,
      "byteOffset": 63732,
      "componentType": 5125,
      "count": 150,
      "max": [
        53
      ],
      "min": [
        0
      ],
      "type": "SCALAR"
    },
    {
      "bufferView": 2,
      "byteOffset": 127992,
      "componentType": 5126,
      "count": 879,
      "max": [
        13.240082740783691,
        14.837037086486816,
        182.07421875
      ],
      "min": [
        -13.240082740783691,
        -13.907502174377441,
        165.12471008300781
      ],
      "type": "VEC3"
    },
    {
      "bufferView": 2,
      "byteOffset": 138540,
      "componentType": 5126,
      "count": 879,
      "max": [
        0.99945718050003052,
        0.9877895712852478,
        0.99698501825332642
      ],
      "min": [
        -0.99945718050003052,
        -0.99878031015396118,
        -0.99997639656066895
      ],
      "type": "VEC3"
    },
    {
      "bufferView": 3,
      "byteOffset": 85328,
      "componentType": 5126,
      "count": 879,
      "max": [
        0.99962466955184937,
        0.88524860143661499,
        0.96829491853713989,
        1
      ],
      "min": [
        -0.99962455034255981,
        -0.9995911717414856,
        -0.99994313716888428,
        -1
      ],
      "type": "VEC4"
    },
    {
      "bufferView": 1,
      "byteOffset": 42664,
      "componentType": 5126,
      "count": 879,
      "max": [
        0.8652300238609314,
        0.065370082855224609
      ],
      "min": [
        0.85986000299453735,
        0.050510048866271973
      ],
      "type": "VEC2"
    },
    {
      "bufferView": 0,
      "byteOffset": 64332,
      "componentType": 5125,
      "count": 3147,
      "max": [
        878
      ],
      "min": [
        0
      ],
      "type": "SCALAR"
    },
    {
      "bufferView": 2,
      "byteOffset": 149088,
      "componentType": 5126,
      "count": 3175,
      "max": [
        14.282552719116211,
        16.499271392822266,
        192.50979614257812
      ],
      "min": [
        -14.283516883850098,
        -12.321093559265137,
        157.03994750976562
      ],
      "type": "VEC3"
    },
    {
      "bufferView": 2,
      "byteOffset": 187188,
      "componentType": 5126,
      "count": 3175,
      "max": [
        0.99989515542984009,
        0.99999141693115234,
        0.99995070695877075
      ],
      "min": [
        -0.99989515542984009,
        -0.9989314079284668,
        -0.99998629093170166
      ],
      "type": "VEC3"
    },
    {
      "bufferView": 3,
      "byteOffset": 99392,
      "componentType": 5126,
      "count": 3175,
      "max": [
        0.99935340881347656,
        0.9994627833366394,
        0.99998980760574341,
        1
      ],
      "min": [
        -0.99935340881347656,
        -0.99998629093170166,
        -0.99994981288909912,
        -1
      ],
      "type": "VEC4"
    },
    {
      "bufferView": 1,
      "byteOffset": 49696,
      "componentType": 5126,
      "count": 3175,
      "max": [
        0.89600002765655518,
        0.097169995307922363
      ],
      "min": [
        0.83691000938415527,
        0.012629985809326172
      ],
      "type": "VEC2"
    },
    {
      "bufferView": 0,
      "byteOffset": 76920,
      "componentType": 5125,
      "count": 10398,
      "max": [
        3174
      ],
      "min": [
        0
      ],
      "type": "SCALAR"
    },
    {
      "bufferView": 2,
      "byteOffset": 225288,
      "componentType": 5126,
      "count": 1633,
      "max": [
        11.709083557128906,
        2.9518213272094727,
        179.31758117675781
      ],
      "min": [
        -11.709083557128906,
        -11.121421813964844,
        157.44648742675781
      ],
      "type": "VEC3"
    },
    {
      "bufferView": 2,
      "byteOffset": 244884,
      "componentType": 5126,
      "count": 1633,
      "max": [
        0.99844729900360107,
        0.98527067899703979,
        0.99522364139556885
      ],
      "min": [
        -0.99844253063201904,
        -0.99992948770523071,
        -0.99970442056655884
      ],
      "type": "VEC3"
    },
    {
      "bufferView": 3,
      "byteOffset": 150192,
      "componentType": 5126,
      "count": 1633,
      "max": [
        0.99888217449188232,
        0.99992197751998901,
        0.99922943115234375,
        1
      ],
      "min": [
        -0.99888217449188232,
        -0.98914086818695068,
        -0.9689333438873291,
        -1
      ],
      "type": "VEC4"
    },
    {
      "bufferView": 1,
      "byteOffset": 75096,
      "componentType": 5126,
      "count": 1633,
      "max": [
        0.83495998382568359,
        0.99169999361038208
      ],
      "min": [
        0.01648000068962574,
        0.028530001640319824
      ],
      "type": "VEC2"
    },
    {
      "bufferView": 0,
      "byteOffset": 118512,
      "componentType": 5125,
      "count": 7164,
      "max": [
        1632
      ],
      "min": [
        0
      ],
      "type": "SCALAR"
    },
    {
      "bufferView": 4,
      "componentType": 5126,
      "count": 7,
      "max": [
        1,
        1,
        0.047922577708959579,
        0,
        3.8518598887744717e-34,
        1,
        0,
        0,
        0,
        6.1232342629258393e-17,
        1,
        0,
        4.5965917096314415e-17,
        2.6588883399963379,
        148.03285217285156,
        1
      ],
      "min": [
        6.1232342629258393e-17,
        0,
        -0.023802777752280235,
        0,
        0,
        -0.023802777752280235,
        -1,
        0,
        -1,
        0,
        -1.4574997873415243e-18,
        0,
        -2.7709313058330048e-17,
        -7.1888275146484375,
        0,
        1
      ],
      "type": "MAT4"
    }
  ],
  "asset": {
    "extras": {
      "author": "elrfercho0 (https://sketchfab.com/elrfercho0)",
      "license": "CC-BY-4.0 (http://creativecommons.org/licenses/by/4.0/)",
      "source": "https://sketchfab.com/models/2aaa74a76c5d4113bae55906cc79e695",
      "title": "Naruto"
    },
    "generator": "Sketchfab-3.22.11",
    "version": "2.0"
  },
  "bufferViews": [
    {
      "buffer": 0,
      "byteLength": 147168,
      "byteOffset": 0,
      "name": "floatBufferViews",
      "target": 34963
    },
    {
      "buffer": 0,
      "byteLength": 88160,
      "byteOffset": 147168,
      "byteStride": 8,
      "name": "floatBufferViews",
      "target": 34962
    },
    {
      "buffer": 0,
      "byteLength": 264480,
      "byteOffset": 235328,
      "byteStride": 12,
      "name": "floatBufferViews",
      "target": 34962
    },
    {
      "buffer": 0,
      "byteLength": 176320,
      "byteOffset": 499808,
      "byteStride": 16,
      "name": "floatBufferViews",
      "target": 34962
    },
    {
      "buffer": 0,
      "byteLength": 448,
      "byteOffset": 676128,
      "byteStride": 64,
      "name": "floatBufferViews"
    }
  ],
  "buffers": [
    {
      "byteLength": 676576,
      "uri": "scene.bin"
    }
  ],
  "images": [
    {
      "uri": "textures/Material__3_baseColor.png"
    },
    {
      "uri": "textures/Material__3_emissive.png"
    },
    {
      "uri": "textures/C__Users_Loris_Desktop___ntxr00_baseColor.png"
    },
    {
      "uri": "textures/C__Users_Loris_Desktop___ntxr00_0_baseColor.png"
    }
  ],
  "materials": [
    {
      "doubleSided": true,
      "emissiveFactor": [
        0,
        0,
        0
      ],
      "name": "C__Users_Loris_Desktop___ntxr00",
      "pbrMetallicRoughness": {
        "baseColorFactor": [
          1,
          1,
          1,
          1
        ],
        "baseColorTexture": {
          "index": 2,
          "texCoord": 0
        },
        "metallicFactor": 0,
        "roughnessFactor": 1
      }
    },
    {
      "doubleSided": true,
      "emissiveFactor": [
        1,
        1,
        1
      ],
      "emissiveTexture": {
        "index": 1,
        "texCoord": 0
      },
      "name": "Material__3",
      "pbrMetallicRoughness": {
        "baseColorFactor": [
          1,
          1,
          1,
          1
        ],
        "baseColorTexture": {
          "index": 0,
          "texCoord": 0
        },
        "metallicFactor": 0,
        "roughnessFactor": 1
      }
    },
    {
      "doubleSided": true,
      "emissiveFactor": [
        0,
        0,
        0
      ],
      "name": "C__Users_Loris_Desktop___ntxr00_0",
      "pbrMetallicRoughness": {
        "baseColorFactor": [
          1,
          1,
          1,
          1
        ],
        "baseColorTexture": {
          "index": 3,
          "texCoord": 0
        },
        "metallicFactor": 0,
        "roughnessFactor": 1
      }
    }
  ],
  "meshes": [
    {
      "primitives": [
        {
          "attributes": {
            "NORMAL": 1,
            "POSITION": 0,
            "TANGENT": 2,
            "TEXCOORD_0": 3
          },
          "indices": 4,
          "material": 0,
          "mode": 4
        }
      ]
    },
    {
      "name": "eye_Material__3_0",
      "primitives": [
        {
          "attributes": {
            "NORMAL": 6,
            "POSITION": 5,
            "TANGENT": 7,
            "TEXCOORD_0": 8
          },
          "indices": 9,
          "material": 1,
          "mode": 4
        }
      ]
    },
    {
      "name": "eye_2_Material__3_0",
      "primitives": [
        {
          "attributes": {
            "NORMAL": 11,
            "POSITION": 10,
            "TANGENT": 12,
            "TEXCOORD_0": 13
          },
          "indices": 14,
          "material": 1,
          "mode": 4
        }
      ]
    },
    {
      "name": "_2nrt00t0_kami2__C__Users_Loris_Desktop___ntxr00_0",
      "primitives": [
        {
          "attributes": {
            "NORMAL": 16,
            "POSITION": 15,
            "TANGENT": 17,
            "TEXCOORD_0": 18
          },
          "indices": 19,
          "material": 2,
          "mode": 4
        }
      ]
    },
    {
      "name": "hair_C__Users_Loris_Desktop___ntxr00_0",
      "primitives": [
        {
          "attributes": {
            "NORMAL": 21,
            "POSITION": 20,
            "TANGENT": 22,
            "TEXCOORD_0": 23
          },
          "indices": 24,
          "material": 2,
          "mode": 4
        }
      ]
    },
    {
      "name": "face_C__Users_Loris_Desktop___ntxr00_0",
      "primitives": [
        {
          "attributes": {
            "NORMAL": 26,
            "POSITION": 25,
            "TANGENT": 27,
            "TEXCOORD_0": 28
          },
          "indices": 29,
          "material": 2,
          "mode": 4
        }
      ]
    }
  ],
  "nodes": [
    {
      "children": [
        1
      ],
      "name": "RootNode (gltf orientation matrix)",
      "rotation": [
        -0.70710678118654746,
        -0,
        -0,
        0.70710678118654757
      ]
    },
    {
      "children": [
        2
      ],
      "name": "RootNode (model correction matrix)"
    },
    {
      "children": [
        3
      ],
      "matrix": [
        1,
        0,
        0,
        0,
        0,
        0,
        1,
        0,
        0,
        -1,
        0,
        0,
        0,
        0,
        0,
        1
      ],
      "name": "86a6a06f9b094e2ebd7e5dface283155.fbx"
    },
    {
      "children": [
        4
      ],
      "name": "RootNode"
    },
    {
      "children": [
        5
      ],
      "matrix": [
        1,
        0,
        0,
        0,
        0,
        1,
        0,
        0,
        0,
        0,
        1,
        0,
        0,
        109.54440307617188,
        0,
        1
      ],
      "name": "__naruto"
    },
    {
      "children": [
        6,
        7
      ],
      "name": ""
    },
    {
      "children": [
        9
      ],
      "name": "_rootJoint"
    },
    {
      "children": [
        8
      ],
      "matrix": [
        1,
        0,
        -4.778713674510829e-33,
        0,
        -1.8406935522786329e-66,
        1,
        -3.8518598887744717e-34,
        0,
        4.778713674510829e-33,
        3.8518598887744717e-34,
        1,
        0,
        -1.6653345369377348e-16,
        109.54440160736688,
        -6.1629758220391547e-33,
        1
      ],
      "name": ""
    },
    {
      "mesh": 0,
      "name": ""
    },
    {
      "children": [
        10
      ],
      "matrix": [
        2.2204460492503131e-16,
        5.5511151231257827e-17,
        -0.99999999999999978,
        0,
        0.99936285434754946,
        0.035691530512412362,
        5.5511151231257827e-17,
        0,
        0.03569153051241214,
        -0.99936285434754946,
        2.2204460492503131e-16,
        0,
        0.45252743363380432,
        -17.592771530151367,
        0,
        1
      ],
      "name": "Junta_1_01"
    },
    {
      "children": [
        11
      ],
      "matrix": [
        1,
        0,
        -7.7037197775489426e-34,
        0,
        2.7495754949946391e-35,
        0.99936285434754957,
        0.035691530512412521,
        0,
        7.69881138598498e-34,
        -0.035691530512412521,
        0.99936285434754957,
        0,
        -2.1575763853165672e-17,
        -8.8817841970012523e-16,
        -9.8723411560058594,
        1
      ],
      "name": "Junta_2_3_010"
    },
    {
      "children": [
        12
      ],
      "matrix": [
        1,
        1.6313261169996311e-55,
        1.090637702309398e-37,
        0,
        -2.5960207047921664e-39,
        0.9997166737441362,
        0.023802777946289197,
        0,
        -1.0903286960126986e-37,
        -0.023802777946289197,
        0.9997166737441362,
        0,
        -2.9274135154685985e-32,
        -1.7208456881689926e-15,
        -14.094358444213867,
        1
      ],
      "name": "Junta_3_3_011"
    },
    {
      "children": [
        13
      ],
      "matrix": [
        1,
        0,
        1.9259299443872363e-34,
        0,
        4.5842482806358036e-36,
        0.9997166737441362,
        -0.023802777946288961,
        0,
        -1.9253842778670371e-34,
        0.023802777946288961,
        0.9997166737441362,
        0,
        1.8340673440941943e-20,
        -5.3290705182007514e-15,
        -14.80327033996582,
        1
      ],
      "name": "Junta_4_3_012"
    },
    {
      "children": [
        14
      ],
      "matrix": [
        1,
        -1.3050608935997049e-54,
        2.2127909994724007e-37,
        0,
        1.0604264904320492e-38,
        0.99885105322448031,
        -0.047922577897546052,
        0,
        -2.2102486203886579e-37,
        0.047922577897546052,
        0.99885105322448031,
        0,
        -1.433293732242686e-17,
        -1.6653345369377348e-16,
        -9.8660507202148438,
        1
      ],
      "name": "Junta_5_013"
    },
    {
      "children": [
        15
      ],
      "matrix": [
        1,
        0,
        0,
        0,
        0,
        0.99885105322448031,
        0.0479225778975454,
        0,
        0,
        -0.0479225778975454,
        0.99885105322448031,
        0,
        -3.7784869227593457e-17,
        -1.7763568394002505e-15,
        -7.464268684387207,
        1
      ],
      "name": "Junta_6_5_034"
    },
    {
      "children": [
        16,
        18,
        20,
        22,
        24
      ],
      "matrix": [
        -2.2204460492503131e-16,
        1,
        1.1102230246251565e-16,
        0,
        1.1102230246251565e-16,
        0,
        -1,
        0,
        -1,
        -1.1102230246251565e-16,
        -2.2204460492503131e-16,
        0,
        -2.1068477630615234,
        -0.095217831432819366,
        95.690223693847656,
        1
      ],
      "name": "Nulo__2"
    },
    {
      "children": [
        17
      ],
      "matrix": [
        1,
        1.487264495218848e-64,
        4.7150521604609611e-49,
        0,
        -1.487264495218848e-64,
        1,
        0,
        0,
        -4.7150521604609611e-49,
        -7.0125296713585103e-113,
        1,
        0,
        4.456517219543457,
        113.56602478027344,
        4.4394726753234863,
        1
      ],
      "name": "eye"
    },
    {
      "mesh": 1,
      "name": "eye_Material__3_0"
    },
    {
      "children": [
        19
      ],
      "matrix": [
        1,
        1.487264495218848e-64,
        4.7150521604609611e-49,
        0,
        -1.487264495218848e-64,
        1,
        0,
        0,
        -4.7150521604609611e-49,
        -7.0125296713585103e-113,
        1,
        0,
        -4.4584012031555176,
        113.56602478027344,
        4.718625545501709,
        1
      ],
      "name": "eye_2"
    },
    {
      "mesh": 2,
      "name": "eye_2_Material__3_0"
    },
    {
      "children": [
        21
      ],
      "matrix": [
        1,
        2.4651903288156619e-32,
        2.4651903288156616e-32,
        0,
        2.4651903288156608e-32,
        2.2204460492503131e-16,
        -1,
        0,
        -2.4651903288156624e-32,
        1,
        2.2204460492503131e-16,
        0,
        0.0004710662760771811,
        -56.783012390136719,
        -2.2895245552062988,
        1
      ],
      "name": "_2nrt00t0_kami2_"
    },
    {
      "mesh": 3,
      "name": "_2nrt00t0_kami2__C__Users_Loris_Desktop___ntxr00_0"
    },
    {
      "children": [
        23
      ],
      "matrix": [
        1,
        2.4651903288156619e-32,
        2.4651903288156616e-32,
        0,
        2.4651903288156608e-32,
        2.2204460492503131e-16,
        -1,
        0,
        -2.4651903288156624e-32,
        1,
        2.2204460492503131e-16,
        0,
        0.0004710662760771811,
        -56.783012390136719,
        -2.2895245552062988,
        1
      ],
      "name": "hair"
    },
    {
      "mesh": 4,
      "name": "hair_C__Users_Loris_Desktop___ntxr00_0"
    },
    {
      "children": [
        25
      ],
      "matrix": [
        1,
        2.4651903288156619e-32,
        2.4651903288156616e-32,
        0,
        2.4651903288156608e-32,
        2.2204460492503131e-16,
        -1,
        0,
        -2.4651903288156624e-32,
        1,
        2.2204460492503131e-16,
        0,
        0.0004710662760771811,
        -56.783012390136719,
        -2.2895245552062988,
        1
      ],
      "name": "face"
    },
    {
      "mesh": 5,
      "name": "face_C__Users_Loris_Desktop___ntxr00_0"
    }
  ],
  "samplers": [
    {
      "magFilter": 9729,
      "minFilter": 9987,
      "wrapS": 10497,
      "wrapT": 10497
    }
  ],
  "scene": 0,
  "scenes": [
    {
      "name": "OSG_Scene",
      "nodes": [
        0
      ]
    }
  ],
  "skins": [
    {
      "inverseBindMatrices": 30,
      "joints": [
        6,
        9,
        10,
        11,
        12,
        13,
        14
      ],
      "skeleton": 6
    }
  ],
  "textures": [
    {
      "sampler": 0,
      "source": 0
    },
    {
      "sampler": 0,
      "source": 1
    },
    {
      "sampler": 0,
      "source": 2
    },
    {
      "sampler": 0,
      "source": 3
    }
  ]
}

